Sprint_07200001_forces_filt100Hz.mot
version=1
nRows=43
nColumns=19
inDegrees=yes
endheader
time	R_ground_force_vx	R_ground_force_vy	R_ground_force_vz	R_ground_force_px	R_ground_force_py	R_ground_force_pz	R_ground_torque_x	R_ground_torque_y	R_ground_torque_z	L_ground_force_vx	L_ground_force_vy	L_ground_force_vz	L_ground_force_px	L_ground_force_py	L_ground_force_pz	L_ground_torque_x	L_ground_torque_y	L_ground_torque_z	
0.794500	  0.000000	  0.000000	  0.000000	  1.446121	  0.000000	 -0.288885	  0.000000	  0.000000	  0.000000	  0.000000	  0.000000	  0.000000	  0.166049	  0.000000	 -0.356331	  0.000000	  0.000000	  0.000000
0.795000	  0.000000	  0.000000	  0.000000	  1.447078	  0.000000	 -0.289107	  0.000000	  0.000000	  0.000000	  0.000000	  0.000000	  0.000000	  0.165639	  0.000000	 -0.356429	  0.000000	  0.000000	  0.000000
0.795500	  0.000000	  0.000000	  0.000000	  1.447992	  0.000000	 -0.289280	  0.000000	  0.000000	  0.000000	  0.000000	  0.000000	  0.000000	  0.165518	  0.000000	 -0.356353	  0.000000	  0.000000	  0.000000
0.796000	  0.000000	  0.000000	  0.000000	  1.448907	  0.000000	 -0.289453	  0.000000	  0.000000	  0.000000	  0.000000	  0.000000	  0.000000	  0.165397	  0.000000	 -0.356277	  0.000000	  0.000000	  0.000000
0.796500	  0.000000	  0.000000	  0.000000	  1.449821	  0.000000	 -0.289626	  0.000000	  0.000000	  0.000000	  0.000000	  0.000000	  0.000000	  0.165276	  0.000000	 -0.356202	  0.000000	  0.000000	  0.000000
0.797000	  0.000000	  0.000000	  0.000000	  1.450736	  0.000000	 -0.289799	  0.000000	  0.000000	  0.000000	  0.000000	  0.000000	  0.000000	  0.165155	  0.000000	 -0.356126	  0.000000	  0.000000	  0.000000
0.797500	  0.000000	  0.000000	  0.000000	  1.451650	  0.000000	 -0.289972	  0.000000	  0.000000	  0.000000	  0.000000	  0.000000	  0.000000	  0.165034	  0.000000	 -0.356051	  0.000000	  0.000000	  0.000000
0.798000	  0.000000	  0.000000	  0.000000	  1.452564	  0.000000	 -0.290145	  0.000000	  0.000000	  0.000000	  0.000000	  0.000000	  0.000000	  0.164914	  0.000000	 -0.355975	  0.000000	  0.000000	  0.000000
0.798500	  0.000000	  0.000000	  0.000000	  1.453479	  0.000000	 -0.290318	  0.000000	  0.000000	  0.000000	  0.000000	  0.000000	  0.000000	  0.164793	  0.000000	 -0.355900	  0.000000	  0.000000	  0.000000
0.799000	  0.000000	  0.000000	  0.000000	  1.454393	  0.000000	 -0.290492	  0.000000	  0.000000	  0.000000	  0.000000	  0.000000	  0.000000	  0.164672	  0.000000	 -0.355824	  0.000000	  0.000000	  0.000000
0.799500	  0.000000	  0.000000	  0.000000	  1.455307	  0.000000	 -0.290665	  0.000000	  0.000000	  0.000000	  0.000000	  0.000000	  0.000000	  0.164551	  0.000000	 -0.355749	  0.000000	  0.000000	  0.000000
0.800000	  0.000000	  0.000000	  0.000000	  1.456222	  0.000000	 -0.290838	  0.000000	  0.000000	  0.000000	  0.000000	  0.000000	  0.000000	  0.164430	  0.000000	 -0.355673	  0.000000	  0.000000	  0.000000
0.800500	  0.000000	  0.000000	  0.000000	  1.456635	  0.000000	 -0.291064	  0.000000	  0.000000	  0.000000	  0.000000	  0.000000	  0.000000	  0.164595	  0.000000	 -0.355758	  0.000000	  0.000000	  0.000000
0.801000	  0.000000	  0.000000	  0.000000	  1.457049	  0.000000	 -0.291289	  0.000000	  0.000000	  0.000000	  0.000000	  0.000000	  0.000000	  0.164759	  0.000000	 -0.355843	  0.000000	  0.000000	  0.000000
0.801500	  0.000000	  0.000000	  0.000000	  1.457463	  0.000000	 -0.291515	  0.000000	  0.000000	  0.000000	  0.000000	  0.000000	  0.000000	  0.164924	  0.000000	 -0.355928	  0.000000	  0.000000	  0.000000
0.802000	  0.000000	  0.000000	  0.000000	  1.457877	  0.000000	 -0.291741	  0.000000	  0.000000	  0.000000	  0.000000	  0.000000	  0.000000	  0.165089	  0.000000	 -0.356013	  0.000000	  0.000000	  0.000000
0.802500	  0.000000	  0.000000	  0.000000	  1.458290	  0.000000	 -0.291966	  0.000000	  0.000000	  0.000000	  0.000000	  0.000000	  0.000000	  0.165254	  0.000000	 -0.356098	  0.000000	  0.000000	  0.000000
0.803000	  0.000000	  0.000000	  0.000000	  1.458704	  0.000000	 -0.292192	  0.000000	  0.000000	  0.000000	  0.000000	  0.000000	  0.000000	  0.165418	  0.000000	 -0.356183	  0.000000	  0.000000	  0.000000
0.803500	  0.000000	  0.000000	  0.000000	  1.459118	  0.000000	 -0.292418	  0.000000	  0.000000	  0.000000	  0.000000	  0.000000	  0.000000	  0.165583	  0.000000	 -0.356268	  0.000000	  0.000000	  0.000000
0.804000	  0.000000	  0.000000	  0.000000	  1.459531	  0.000000	 -0.292643	  0.000000	  0.000000	  0.000000	  0.000000	  0.000000	  0.000000	  0.165748	  0.000000	 -0.356354	  0.000000	  0.000000	  0.000000
0.804500	  0.000000	  0.000000	  0.000000	  1.459945	  0.000000	 -0.292869	  0.000000	  0.000000	  0.000000	  0.000000	  0.000000	  0.000000	  0.165912	  0.000000	 -0.356439	  0.000000	  0.000000	  0.000000
0.805000	  0.000000	  0.000000	  0.000000	  1.460359	  0.000000	 -0.293095	  0.000000	  0.000000	  0.000000	  0.000000	  0.000000	  0.000000	  0.166077	  0.000000	 -0.356524	  0.000000	  0.000000	  0.000000
0.805500	  0.000000	  0.000000	  0.000000	  1.460457	  0.000000	 -0.293335	  0.000000	  0.000000	  0.000000	  0.000000	  0.000000	  0.000000	  0.166473	  0.000000	 -0.356675	  0.000000	  0.000000	  0.000000
0.806000	  0.000000	  0.000000	  0.000000	  1.460556	  0.000000	 -0.293575	  0.000000	  0.000000	  0.000000	  0.000000	  0.000000	  0.000000	  0.166869	  0.000000	 -0.356827	  0.000000	  0.000000	  0.000000
0.806500	  0.000000	  0.000000	  0.000000	  1.460655	  0.000000	 -0.293815	  0.000000	  0.000000	  0.000000	  0.000000	  0.000000	  0.000000	  0.167265	  0.000000	 -0.356979	  0.000000	  0.000000	  0.000000
0.807000	  0.000000	  0.000000	  0.000000	  1.460754	  0.000000	 -0.294055	  0.000000	  0.000000	  0.000000	  0.000000	  0.000000	  0.000000	  0.167661	  0.000000	 -0.357130	  0.000000	  0.000000	  0.000000
0.807500	  0.000000	  0.000000	  0.000000	  1.460853	  0.000000	 -0.294295	  0.000000	  0.000000	  0.000000	  0.000000	  0.000000	  0.000000	  0.168057	  0.000000	 -0.357282	  0.000000	  0.000000	  0.000000
0.808000	  0.000000	  0.000000	  0.000000	  1.460951	  0.000000	 -0.294535	  0.000000	  0.000000	  0.000000	  0.000000	  0.000000	  0.000000	  0.168453	  0.000000	 -0.357434	  0.000000	  0.000000	  0.000000
0.808500	  0.000000	  0.000000	  0.000000	  1.461050	  0.000000	 -0.294775	  0.000000	  0.000000	  0.000000	  0.000000	  0.000000	  0.000000	  0.168849	  0.000000	 -0.357585	  0.000000	  0.000000	  0.000000
0.809000	  0.000000	  0.000000	  0.000000	  1.461149	  0.000000	 -0.295015	  0.000000	  0.000000	  0.000000	  0.000000	  0.000000	  0.000000	  0.169245	  0.000000	 -0.357737	  0.000000	  0.000000	  0.000000
0.809500	  0.000000	  0.000000	  0.000000	  1.461248	  0.000000	 -0.295255	  0.000000	  0.000000	  0.000000	  0.000000	  0.000000	  0.000000	  0.169641	  0.000000	 -0.357889	  0.000000	  0.000000	  0.000000
0.810000	  0.000000	  0.000000	  0.000000	  1.461347	  0.000000	 -0.295495	  0.000000	  0.000000	  0.000000	  0.000000	  0.000000	  0.000000	  0.170037	  0.000000	 -0.358040	  0.000000	  0.000000	  0.000000
0.810500	  0.000000	  0.000000	  0.000000	  1.461133	  0.000000	 -0.295700	  0.000000	  0.000000	  0.000000	  0.000000	  0.000000	  0.000000	  0.170674	  0.000000	 -0.358179	  0.000000	  0.000000	  0.000000
0.811000	  0.000000	  0.000000	  0.000000	  1.460919	  0.000000	 -0.295906	  0.000000	  0.000000	  0.000000	  0.000000	  0.000000	  0.000000	  0.171312	  0.000000	 -0.358318	  0.000000	  0.000000	  0.000000
0.811500	  0.000000	  0.000000	  0.000000	  1.460706	  0.000000	 -0.296111	  0.000000	  0.000000	  0.000000	  0.000000	  0.000000	  0.000000	  0.171949	  0.000000	 -0.358456	  0.000000	  0.000000	  0.000000
0.812000	  0.000000	  0.000000	  0.000000	  1.460492	  0.000000	 -0.296316	  0.000000	  0.000000	  0.000000	  0.000000	  0.000000	  0.000000	  0.172587	  0.000000	 -0.358595	  0.000000	  0.000000	  0.000000
0.812500	  0.000000	  0.000000	  0.000000	  1.460278	  0.000000	 -0.296522	  0.000000	  0.000000	  0.000000	  0.000000	  0.000000	  0.000000	  0.173224	  0.000000	 -0.358734	  0.000000	  0.000000	  0.000000
0.813000	  0.000000	  0.000000	  0.000000	  1.460065	  0.000000	 -0.296727	  0.000000	  0.000000	  0.000000	  0.000000	  0.000000	  0.000000	  0.173861	  0.000000	 -0.358872	  0.000000	  0.000000	  0.000000
0.813500	  0.000000	  0.000000	  0.000000	  1.459851	  0.000000	 -0.296932	  0.000000	  0.000000	  0.000000	  0.000000	  0.000000	  0.000000	  0.174499	  0.000000	 -0.359011	  0.000000	  0.000000	  0.000000
0.814000	  0.000000	  0.000000	  0.000000	  1.459637	  0.000000	 -0.297138	  0.000000	  0.000000	  0.000000	  0.000000	  0.000000	  0.000000	  0.175136	  0.000000	 -0.359150	  0.000000	  0.000000	  0.000000
0.814500	  0.000000	  0.000000	  0.000000	  1.459424	  0.000000	 -0.297343	  0.000000	  0.000000	  0.000000	  0.000000	  0.000000	  0.000000	  0.175774	  0.000000	 -0.359288	  0.000000	  0.000000	  0.000000
0.815000	  0.000000	  0.000000	  0.000000	  1.459210	  0.000000	 -0.297548	  0.000000	  0.000000	  0.000000	  0.000000	  0.000000	  0.000000	  0.176411	  0.000000	 -0.359427	  0.000000	  0.000000	  0.000000
0.815500	  0.000000	  0.000000	  0.000000	  1.458676	  0.000000	 -0.297742	  0.000000	  0.000000	  0.000000	  0.000000	  0.000000	  0.000000	  0.177302	  0.000000	 -0.359618	  0.000000	  0.000000	  0.000000
